<svg height="32" viewBox="0 0 32 32" width="32" xmlns="http://www.w3.org/2000/svg"><path d="m30.0005 15.5005a6.5324 6.5324 0 0 0 -5.1992-6.3638 8.9943 8.9943 0 0 0 -17.6006 0 6.5321 6.5321 0 0 0 -5.2 6.3638 6.4543 6.4543 0 0 0 1.6887 4.35 5.9829 5.9829 0 0 0 4.3106 10.1495h11a5.9764 5.9764 0 0 0 5.6094-8.1016 6.5051 6.5051 0 0 0 5.3911-6.3979zm-11.0005 12.4995h-11a3.9925 3.9925 0 0 1 -.6731-7.9292l.6631-.1128.1458-.6562a5.496 5.496 0 0 1 10.7294 0l.1458.6562.6626.1128a3.9925 3.9925 0 0 1 -.6736 7.9292zm4.5-8h-.0554a5.9562 5.9562 0 0 0 -2.7959-1.7564 7.4952 7.4952 0 0 0 -14.2984 0 5.9877 5.9877 0 0 0 -1.0315.4073 4.4446 4.4446 0 0 1 -1.3188-3.1504 4.5171 4.5171 0 0 1 4.144-4.481l.8155-.0639.0991-.812a6.9938 6.9938 0 0 1 13.8838 0l.0986.812.8154.0639a4.4975 4.4975 0 0 1 -.3564 8.981z"/><path d="m0 0h32v32h-32z" fill="none"/></svg>